<?xml version="1.0" encoding="UTF-8"?>
<svg version="1.1" viewBox="0 0 2048 2048" width="1280" height="1280" xmlns="http://www.w3.org/2000/svg">
<path transform="translate(0)" d="m0 0h2048v2048h-2048z"/>
<path transform="translate(213,767)" d="m0 0h402l4 4 12 36 14 40 20 57 15 42 19 54 26 74 16 45 15 42 7 21 5 12 4 6 2 1 2-5 12-36 10-29 13-36 17-48 13-37 17-48 19-55 17-48 14-40 16-45 4-6 2-1h148l32 1 29 2 26 4 20 6 20 8 20 11 3 2-4-18-4-12v-4h61l3 3 5 18 25 99 16 61 15 60 7 26 6 24 18 69 13 52 3 5 4-2 8-33 20-76 13-49 17-65 22-84 16-63 11-40 3-5h65l4 2 4 13 18 70 13 51 11 42 10 38 9 34 6 24 11 42 13 49 11 44 3 6 3 3 4-10 16-64 23-89 19-74 11-43 16-64 19-72 2-2h61l1 3-8 26-8 29-17 62-12 44-16 59-8 29-24 88-8 29-12 45-16 58-10 35-5 5-7 1-10-1h-40l-5-4-13-46-13-47-12-44-21-76-16-57-12-43-9-33-7-26-8-28-3-5-4 8-5 21-7 24-14 51-10 36-14 51-12 43-12 44-13 48-14 50-8 28-2 4-2 1h-59l-4-4-16-56-17-63-7-24v-2l-3 3-6 17-11 22-12 19-13 15-12 13-12 11-15 11-17 10-22 10-18 6-24 6-28 4-13 1-29 1h-151l-1-1-1-26-1-315-10 25-7 20-13 36-11 29-23 63-18 50-20 55-11 30-11 28-3 5-2 1h-58l-5-5-11-28-17-46-16-44-14-38-11-30-8-21-7-20-9-24-16-44-11-30-13-35-11-30-10-28-15-45-4 2-11 16-10 16-13 18-10 16-11 16-58 87-7 10-11 17-9 13-32 48-11 16-82 123-11 15h54l224 1 1 1v51l-1 1-118 1h-227l-7-2-1-2 1-33 2-8 5-10 16-23 7-11 29-43 52-78 11-16 36-54 10-14 9-14 29-43 58-87 10-16 1-3h-275l-3-1v-48z" fill="#FDFDFD"/>
<path transform="translate(1060,821)" d="m0 0h22l29 1 25 3 18 4 20 7 23 12 14 10 12 11 10 11 10 15 12 23 9 25 5 22 3 19 2 24v33l-3 27-4 22-6 22-7 19-10 19-8 11-9 11-10 10-17 13-15 9-18 8-22 7-16 3-22 2-41 1h-72l-1-1v-402z"/>
</svg>
